<?xml version="1.0" standalone="no"?>
<!DOCTYPE svg PUBLIC "-//W3C//DTD SVG 20010904//EN"
 "http://www.w3.org/TR/2001/REC-SVG-20010904/DTD/svg10.dtd">
<svg version="1.0" xmlns="http://www.w3.org/2000/svg"
 width="690.000000pt" height="690.000000pt" viewBox="0 0 690.000000 690.000000"
 preserveAspectRatio="xMidYMid meet">

<g transform="translate(0.000000,690.000000) scale(0.100000,-0.100000)"
fill="#000000" stroke="none">
<path d="M3100 5009 c-190 -110 -367 -213 -395 -228 -27 -15 -210 -121 -406
-234 -196 -114 -363 -209 -370 -212 -12 -4 -14 -149 -14 -889 l0 -884 380
-220 c209 -120 388 -222 397 -225 9 -3 177 -99 373 -212 196 -114 362 -204
370 -202 7 3 163 93 346 200 184 106 357 206 384 221 136 76 762 440 773 451
10 9 -35 39 -215 143 -125 73 -289 167 -363 211 -134 78 -135 78 -160 61 -22
-15 -641 -400 -727 -452 l-33 -20 -382 238 c-211 130 -386 242 -390 248 -4 6
-7 211 -5 455 l2 444 385 239 c211 132 391 237 400 235 17 -4 736 -452 762
-474 15 -13 52 6 375 192 197 114 364 213 371 220 11 10 -58 54 -354 225 -202
117 -388 224 -413 238 -26 14 -201 115 -391 225 -190 110 -347 201 -350 203
-4 1 -161 -87 -350 -197z"/>
</g>
</svg>
